<svg width="584.0000000000001" height="468.599" xmlns="http://www.w3.org/2000/svg">

 <g>
  <title>Layer 1</title>
  <path stroke="null" id="svg_1" fill="#f2f2f2" d="m470.47004,450.91169c2.06592,0.12937 3.20768,-2.43737 1.64468,-3.93333l-0.1555,-0.61819c0.02047,-0.04951 0.04105,-0.09897 0.06178,-0.14839c2.08924,-4.9818 9.16992,-4.94742 11.24139,0.04177c1.83859,4.42817 4.17942,8.86389 4.75579,13.54594c0.25838,2.0668 0.14213,4.17236 -0.31648,6.20047c4.30807,-9.41059 6.57515,-19.68661 6.57515,-30.02077c0,-2.59652 -0.14213,-5.19301 -0.43275,-7.78295c-0.239,-2.11854 -0.56839,-4.2241 -0.99471,-6.31034c-2.30575,-11.2772 -7.29852,-22.01825 -14.50012,-30.98962c-3.46197,-1.89248 -6.34906,-4.85065 -8.09295,-8.39652c-0.62649,-1.27891 -1.11739,-2.65462 -1.34991,-4.05618c0.39398,0.05168 1.48556,-5.94866 1.18841,-6.3168c0.54906,-0.83317 1.53178,-1.24733 2.13144,-2.06034c2.98232,-4.04341 7.0912,-3.33741 9.23621,2.15727c4.58224,2.31266 4.62659,6.14806 1.81495,9.83683c-1.78878,2.34682 -2.03456,5.52233 -3.60408,8.03478c0.16151,0.20671 0.32944,0.40695 0.4909,0.61366c2.96106,3.79788 5.52208,7.88002 7.68104,12.16859c-0.61017,-4.76621 0.29067,-10.50822 1.82641,-14.20959c1.74819,-4.21732 5.02491,-7.76915 7.91045,-11.41501c3.46601,-4.37924 10.57337,-2.46806 11.18401,3.08332c0.00591,0.05375 0.01166,0.10745 0.01731,0.1612c-0.4286,0.24178 -0.84849,0.49867 -1.25864,0.76992c-2.33949,1.54723 -1.53096,5.17386 1.24107,5.60174l0.06277,0.00967c-0.15503,1.54366 -0.41984,3.07444 -0.80734,4.57937c3.70179,14.31579 -4.29011,19.5299 -15.70147,19.76412c-0.25191,0.12916 -0.49738,0.25832 -0.74929,0.38109c1.15617,3.25525 2.07982,6.59447 2.76441,9.97891c0.61359,2.99043 1.03991,6.01317 1.27885,9.04888c0.29715,3.83006 0.27129,7.67959 -0.05168,11.50323l0.01939,-0.13562c0.82024,-4.21115 3.10671,-8.14462 6.4266,-10.87028c4.94561,-4.06264 11.93282,-5.55869 17.26826,-8.82425c2.56833,-1.57196 5.85945,0.45945 5.41121,3.43708l-0.02182,0.14261c-0.79443,0.32289 -1.56947,0.69755 -2.31871,1.11733c-0.4286,0.24184 -0.84848,0.49867 -1.25864,0.76992c-2.33949,1.54729 -1.53096,5.17392 1.24107,5.6018l0.06282,0.00965c0.0452,0.00646 0.08397,0.01295 0.12911,0.01944c-1.36282,3.23581 -3.26168,6.23922 -5.63854,8.82922c-2.31463,12.49713 -12.25603,13.68282 -22.89022,10.04354l-0.00648,0c-1.16259,5.06378 -2.86128,10.01127 -5.0444,14.72621l-18.02019,0c-0.06463,-0.20022 -0.12274,-0.40692 -0.18089,-0.60717c1.6664,0.10341 3.34571,0.00649 4.98629,-0.29702c-1.33701,-1.64059 -2.67396,-3.29409 -4.01097,-4.93462c-0.03229,-0.0323 -0.05816,-0.0646 -0.08397,-0.09689c-0.67817,-0.8396 -1.36282,-1.67283 -2.04099,-2.51246l-0.00036,-0.00102c-0.04245,-2.57755 0.26652,-5.14662 0.87876,-7.63984l0.00057,-0.00035l0,-0.00001z"/>
  <path id="svg_2" fill="#e6e6e6" d="m514.61486,217.33542c-4.77997,30.21997 -30.35999,71.70001 -65.51996,111.70001l-190.07001,0l19.87,-125.64001c46.35999,0.20001 104.76001,-14.07001 151.91998,-20.78003c51.90002,-7.37 90.16998,-5.58997 83.79999,34.72003z"/>
  <path id="svg_3" fill="#e6e6e6" d="m162.13488,329.03543l-100.15002,0c-5.53998,0 -10.03998,-4.5 -10.03998,-10.04004l0,-58.62c2.22998,-2.27997 4.46002,-4.51001 6.65997,-6.69c37.29004,-36.83997 69.08002,-58.21997 87.99005,-22.04999c11.31995,21.66003 16.25995,57 15.53998,97.40002l0,0.00001z"/>
  <path stroke="null" id="svg_4" fill="#e6e6e6" d="m804.74374,-46.26141l-1199.57351,0c-15.52687,0 -28.17158,16.67987 -28.17158,37.19656l0,530.84055c0,19.66441 11.63404,35.86143 26.27912,37.11157c0.62373,0.08533 1.24747,0.11378 1.89245,0.11378l84.12779,0l0,-5.68322l-84.12777,0c-0.645,0 -1.26873,-0.02844 -1.89245,-0.11378c-12.2793,-1.27858 -21.97811,-14.89 -21.97811,-31.42835l0,-530.84055c-0.00002,-17.39064 10.70945,-31.51335 23.87055,-31.51335l1199.57351,0c13.16135,0 23.8493,14.12271 23.8493,31.51335l0,530.84055c0,17.39098 -10.68795,31.54213 -23.8493,31.54213l-96.10598,0l0,5.68322l96.10598,0c15.52659,0 28.15032,-16.70902 28.15032,-37.22535l0,-530.84055c0,-20.51666 548.66,-258.84264 -28.15032,-37.19656z"/>
  <g id="svg_5">
   <ellipse id="svg_6" fill="#8b5cf6" ry="12.20069" rx="12.46328" cy="51.83324" cx="69.21187"/>
   <path id="svg_7" fill="#f2f2f2" d="m169.12473,47.65933l-67.08495,0c-2.30142,0 -4.17392,-1.87249 -4.17392,-4.17392s1.87249,-4.17392 4.17392,-4.17392l67.08496,0c2.30142,0 4.17392,1.87249 4.17392,4.17392s-1.87249,4.17392 -4.17392,4.17392l-0.00001,0z"/>
   <path id="svg_8" fill="#f2f2f2" d="m221.47806,61.78644l-119.43828,0c-2.30142,0 -4.17392,-1.87249 -4.17392,-4.17392s1.87249,-4.17392 4.17392,-4.17392l119.43829,0c2.30142,0 4.17392,1.87249 4.17392,4.17392s-1.87249,4.17392 -4.17392,4.17392l-0.00001,0z"/>
  </g>
  <path id="svg_9" fill="#3f3d56" d="m394.30865,108.03543c-7.92041,0 -14.36377,-6.44336 -14.36377,-14.36377c0,-7.91992 6.44336,-14.36328 14.36377,-14.36328c7.91992,0 14.36328,6.44336 14.36328,14.36328c0,7.92041 -6.44336,14.36377 -14.36328,14.36377zm0,-26.72705c-6.81738,0 -12.36377,5.54639 -12.36377,12.36328c0,6.81738 5.54639,12.36377 12.36377,12.36377c6.81689,0 12.36328,-5.54639 12.36328,-12.36377c0,-6.81689 -5.54639,-12.36328 -12.36328,-12.36328z"/>
  <path id="svg_10" fill="#3f3d56" d="m443.94488,108.03543c-7.92041,0 -14.36377,-6.44336 -14.36377,-14.36377c0,-7.91992 6.44336,-14.36328 14.36377,-14.36328s14.36377,6.44336 14.36377,14.36328c0,7.92041 -6.44336,14.36377 -14.36377,14.36377zm0,-26.72705c-6.81738,0 -12.36377,5.54639 -12.36377,12.36328c0,6.81738 5.54639,12.36377 12.36377,12.36377s12.36377,-5.54639 12.36377,-12.36377c0,-6.81689 -5.54639,-12.36328 -12.36377,-12.36328z"/>
  <circle id="svg_11" fill="#8b5cf6" r="7.63636" cy="93.6718" cx="443.94488"/>
  <path id="svg_12" fill="#3f3d56" d="m493.58111,108.03543c-7.91992,0 -14.36328,-6.44336 -14.36328,-14.36377c0,-7.91992 6.44336,-14.36328 14.36328,-14.36328c7.92041,0 14.36377,6.44336 14.36377,14.36328c0,7.92041 -6.44336,14.36377 -14.36377,14.36377zm0,-26.72705c-6.81689,0 -12.36328,5.54639 -12.36328,12.36328c0,6.81738 5.54639,12.36377 12.36328,12.36377c6.81738,0 12.36377,-5.54639 12.36377,-12.36377c0,-6.81689 -5.54639,-12.36328 -12.36377,-12.36328z"/>
  <path id="svg_13" fill="#f2f2f2" d="m457.42486,329.03543l-257.27349,0c-7.04222,-45.81639 -30.26389,-101.27465 -44.25652,-146.80808c-15.39191,-50.10593 -19.61266,-88.19192 21.20305,-88.19192c43.62187,0 116.43718,38.17774 176.942,88.19192c55.38181,45.76281 100.45649,101.43519 103.38497,146.80808l-0.00001,0z"/>
  <path id="svg_14" fill="#3f3d56" d="m515.90484,330.03543l-453.91992,0c-6.0874,0 -11.04004,-4.95215 -11.04004,-11.04004l0,-171.91992c0,-6.0874 4.95264,-11.04004 11.04004,-11.04004l453.91992,0c6.0874,0 11.04004,4.95264 11.04004,11.04004l0,171.91992c0,6.08789 -4.95264,11.04004 -11.04004,11.04004zm-453.91992,-192c-4.98486,0 -9.04004,4.05518 -9.04004,9.04004l0,171.91992c0,4.98438 4.05518,9.04004 9.04004,9.04004l453.91992,0c4.98486,0 9.04004,-4.05566 9.04004,-9.04004l0,-171.91992c0,-4.98486 -4.05518,-9.04004 -9.04004,-9.04004l-453.91992,0z"/>
  <g id="svg_15">
   <polygon id="svg_16" fill="#ffb6b6" points="410.16292 459.32804 417.95645 459.32727 421.66388 429.26616 410.16133 429.26695 410.16292 459.32804"/>
   <polygon id="svg_17" fill="#ffb6b6" points="381.98868 459.32804 389.78221 459.32727 393.48964 429.26616 381.98709 429.26695 381.98868 459.32804"/>
   <polygon id="svg_18" fill="#2f2e41" points="365.51562 285.44668 376.07261 369.46776 381.82246 443.06578 395.11049 443.06578 401.94692 368.31779 400.79695 313.69426 408.84673 366.01785 407.28024 443.06578 422.0578 443.06578 434.72104 367.16782 433.66218 280.23808 365.51562 285.44668"/>
   <path id="svg_19" fill="#8b5cf6" d="m409.9967,152.1236l-22.81828,0l-7.08091,9.62665l-18.39951,8.55702l10.92471,66.85171l-7.4748,49.73767s52.32359,16.04443 69.57316,-3.74372c1.89136,-2.49719 2.10699,-5.30408 -0.72534,-8.67424l-3.29958,-39.45897l0.57498,-68.45615l-17.82452,-6.41776l-3.44991,-8.02221z"/>
   <g id="svg_20">
    <path id="svg_21" fill="#ffb6b6" d="m348.7269,281.8667l4.76086,-19.19633l11.3455,1.18968l-5.75561,20.11646c0.27509,0.5768 0.47219,1.2026 0.57214,1.86735c0.54361,3.61549 -1.94667,6.98713 -5.56216,7.53074c-3.61549,0.54361 -6.98713,-1.94667 -7.53074,-5.56216c-0.34668,-2.30576 0.54393,-4.50864 2.17001,-5.94573l0,-0.00001z"/>
    <path id="svg_22" fill="#8b5cf6" d="m367.77754,168.73496l-8.43679,2.16563c-2.92571,0.25049 -7.87244,19.52793 -5.46511,23.70503c0,0 -3.71461,33.83737 -1.68156,37.02482c2.03305,3.18745 -2.40552,41.81491 -2.40552,41.81491l15.35399,0.08064l11.94211,-74.2423l-10.68096,-22.10722c-0.12112,-3.7293 5.09151,-8.75979 1.37384,-8.4415l0,-0.00001z"/>
   </g>
   <g id="svg_23">
    <path id="svg_24" fill="#ffb6b6" d="m436.66605,105.24517l5.04569,18.08547l10.73361,-1.44093l-6.01496,-18.93127c0.24518,-0.55492 0.41501,-1.15419 0.49158,-1.78776c0.41644,-3.44587 -2.03942,-6.57692 -5.4853,-6.99335c-3.44587,-0.41644 -6.57692,2.03942 -6.99335,5.4853c-0.26558,2.19759 0.64014,4.26352 2.22273,5.58254z"/>
    <path id="svg_25" fill="#8b5cf6" d="m414.24728,179.58739l0,0c1.13928,4.34082 5.38053,7.12004 9.81128,6.40654c6.94074,-1.1177 16.62132,-3.54438 21.14506,-8.66747l13.75137,-9.49066l4.18865,-3.68723c2.29623,-2.02135 3.13195,-5.23625 2.11081,-8.11996l-16.44749,-46.44763l-12.73904,3.84982l11.22671,33.27723l0.65025,0.32741c-5.93622,1.43536 -15.32166,9.68533 -18,14c-5.66522,-0.65521 -9.39709,3.56866 -12.50659,9.36322c-2.82959,2.13168 -4.09036,5.76208 -3.19101,9.18873z"/>
   </g>
   <circle id="svg_26" fill="#ffb6b6" r="19.56272" cy="129.88935" cx="398.45174"/>
   <path id="svg_27" fill="#2f2e41" d="m413.44488,117.6254c-0.59003,2.84003 3.22998,6.45001 2.64001,9.28003c-0.39001,1.91998 -0.85004,3.94 -2.31,5.38c-1.36005,1.32996 -3.39001,1.94 -4.88,3.14996c-2.01001,1.63 -2.84003,4.33002 -2.04999,6.65002c0.52997,1.52997 1.69,3.14001 1.58997,4.62c-0.02002,0.37 -0.12,0.73999 -0.33997,1.09003c-0.90002,1.50995 -3.18005,1.69 -5.08002,1.69l-9.51001,0c-6.94,-0.01001 -13,-4.58002 -15.03998,-11.22003c-0.31,-0.98999 -0.63,-1.91998 -0.97003,-2.72998c-1.37,-3.26001 -2.37,-6.65002 -2.96997,-10.09003c-0.57001,-3.20996 2.51996,-4.78998 3.84998,-7.82001c1.45001,-3.32996 1.33002,-7.67999 4.88,-9.27997c3.54999,-1.60999 7.31,0.72998 11.22003,0.08002l0.14996,-0.03003c4.66998,-0.84003 9.70001,-4.5 14.27002,-3.39001c2.63,0.64001 5.14996,1.98999 6.92999,3.82001c-1.26001,0.66003 -2.60999,1.12 -4,1.37c1.87,-0.02997 3.76001,0.22003 5.57001,0.73999c0.47998,0.87 0.79999,1.82001 0.90997,2.81c0.17004,1.48004 -4.12,2.27002 -4.78998,3.67004c-0.03003,0.07001 -0.06,0.13995 -0.07001,0.20996l0.00002,0z"/>
  </g>
  <path id="svg_28" fill="#3f3d56" d="m490.70215,100.29218c-0.27246,0 -0.54395,-0.11084 -0.74121,-0.32861c-0.37109,-0.40967 -0.33984,-1.04199 0.07031,-1.4126l5.54883,-5.02441l-5.02344,-5.54883c-0.37109,-0.40918 -0.33887,-1.0415 0.07031,-1.41211s1.04199,-0.33936 1.41211,0.07031l5.69434,6.29004c0.37109,0.40918 0.33984,1.0415 -0.07031,1.41211l-6.29004,5.69531c-0.19141,0.17334 -0.43164,0.25879 -0.6709,0.25879z"/>
  <path id="svg_29" fill="#3f3d56" d="m397.29785,100.29218c-0.23926,0 -0.47949,-0.08545 -0.6709,-0.25879l-6.29004,-5.69531c-0.41016,-0.37061 -0.44141,-1.00293 -0.07031,-1.41211l5.69434,-6.29004c0.37012,-0.40967 1.00293,-0.44092 1.41211,-0.07031s0.44141,1.00293 0.07031,1.41211l-5.02344,5.54883l5.54883,5.02441c0.41016,0.37061 0.44141,1.00293 0.07031,1.4126c-0.19727,0.21777 -0.46875,0.32861 -0.74121,0.32861z"/>
  <path id="svg_30" fill="#2f2e41" d="m437.79906,460.41494l0,0c-0.07375,1.58563 -1.92674,5.52634 -3.44722,5.98213c-4.56952,1.3698 -26.3382,0.77045 -27.17086,-2.2826c-2.04373,1.8877 -0.0447,-15.23915 2.49792,-13.04479c5.20083,4.48843 8.83116,2.42633 9.54824,-1.20714l0.86342,-2.19461l0.16857,0.24674c0.52544,0.76912 -0.78046,-1.54119 0.14937,-1.59621c0.10741,-0.00636 2.52909,4.88302 3.31153,5.4324l0.06214,0.10015c2.09413,3.37504 5.94378,5.24342 9.89093,4.80043l0,0c1.22315,-0.13727 2.49437,0.26481 3.27722,1.21459c0.57093,0.69268 0.89333,1.59022 0.84874,2.54891z"/>
  <path id="svg_31" fill="#2f2e41" d="m409.79906,460.41494l0,0c-0.07375,1.58563 -1.92674,5.52634 -3.44722,5.98213c-4.56952,1.3698 -26.3382,0.77045 -27.17086,-2.2826c-2.04373,1.8877 -0.0447,-15.23915 2.49792,-13.04479c5.20083,4.48843 8.83116,2.42633 9.54824,-1.20714l0.86342,-2.19461l0.16857,0.24674c0.52544,0.76912 -0.78046,-1.54119 0.14937,-1.59621c0.10741,-0.00636 2.52909,4.88302 3.31153,5.4324l0.06214,0.10015c2.09413,3.37504 5.94378,5.24342 9.89093,4.80043l0,0c1.22315,-0.13727 2.49437,0.26481 3.27722,1.21459c0.57093,0.69268 0.89333,1.59022 0.84874,2.54891z"/>
  <path stroke="null" id="svg_32" fill="#ccc" d="m278.14923,576.90913c0,-11.26484 0.53003,-20.30993 1.19006,-20.30993l253.28998,0c0.65997,0 1.19,9.04509 1.19,20.30993c0,11.26382 -0.53003,20.30993 -1.19,20.30993l-253.28998,0c-0.66003,0 -1.19006,-9.04611 -1.19006,-20.30993z"/>
 </g>
</svg>